<?xml version="1.0" standalone="no"?><!DOCTYPE svg PUBLIC "-//W3C//DTD SVG 1.1//EN" "http://www.w3.org/Graphics/SVG/1.1/DTD/svg11.dtd"><svg t="1645427361002" class="icon" viewBox="0 0 1025 1024" version="1.1" xmlns="http://www.w3.org/2000/svg" p-id="1797" xmlns:xlink="http://www.w3.org/1999/xlink" width="200.1953125" height="200"><defs><style type="text/css"></style></defs><path d="M891.2 1024h-758.4c-73.6 0-132.8-59.2-132.8-132.8v-758.4c0-73.6 59.2-132.8 132.8-132.8h756.8c75.2 0 134.4 59.2 134.4 132.8v756.8c0 75.2-59.2 134.4-132.8 134.4z" fill="#104223" p-id="1798"></path><path d="M0 633.6l364.8 390.4h60.8l-425.6-454.4zM0 760l246.4 264h60.8l-307.2-328zM0 883.2l131.2 140.8H192l-192-204.8v64zM660.8 1024l363.2-388.8v-64l-422.4 452.8zM780.8 1024l243.2-260.8v-65.6l-304 326.4zM891.2 1024h4.8l129.6-137.6v-64l-192 201.6h57.6z" fill="#E5E140" p-id="1799"></path><path d="M713.6 393.6v-46.4h-17.6v-22.4h-30.4c-4.8-36.8-32-60.8-73.6-64-38.4-4.8-76.8 33.6-115.2 68.8-33.6 32-67.2 64-96 64-14.4 0-36.8-17.6-43.2-25.6-3.2-3.2-6.4-3.2-9.6 0-3.2 3.2-3.2 6.4 0 9.6 3.2 3.2 30.4 28.8 52.8 28.8h1.6c33.6 0 67.2-32 104-67.2 36.8-33.6 73.6-70.4 104-65.6 35.2 3.2 57.6 20.8 62.4 49.6h-19.2v22.4h-20.8v48c-62.4 22.4-107.2 81.6-107.2 152 0 89.6 72 161.6 161.6 161.6s161.6-72 161.6-161.6c-1.6-70.4-49.6-131.2-115.2-152zM209.6 280c4.8-6.4 12.8-8 16-3.2l60.8 70.4-78.4-49.6c-4.8-3.2-4.8-11.2 1.6-17.6zM300.8 238.4c8 0 14.4 4.8 14.4 9.6l-6.4 92.8-20.8-91.2c-1.6-4.8 3.2-11.2 12.8-11.2zM401.6 283.2c4.8 6.4 6.4 14.4 1.6 17.6l-76.8 52.8 59.2-73.6c3.2-3.2 11.2-1.6 16 3.2zM347.2 497.6c-8 1.6-14.4 0-16-6.4l-17.6-91.2 43.2 83.2c3.2 4.8-1.6 12.8-9.6 14.4zM230.4 464c-6.4-4.8-8-12.8-3.2-16l70.4-60.8-51.2 78.4c-3.2 4.8-11.2 4.8-16-1.6zM188.8 372.8c0-8 4.8-14.4 9.6-14.4l92.8 6.4-91.2 20.8c-6.4 1.6-11.2-4.8-11.2-12.8z" fill="#FFF100" p-id="1800"></path><path d="M270.4 360l24-1.6 8-20.8 8 20.8 22.4 1.6-19.2 12.8 8 22.4-19.2-14.4-19.2 14.4 6.4-22.4zM641.6 625.6h24l9.6-22.4 6.4 22.4h25.6l-20.8 16 8 22.4-20.8-14.4-19.2 14.4 6.4-22.4zM724.8 580.8l20.8-1.6 6.4-17.6 6.4 17.6 20.8 1.6-17.6 11.2 8 19.2-17.6-11.2-17.6 11.2 6.4-19.2zM577.6 580.8l19.2-1.6 8-17.6 6.4 17.6 19.2 1.6-16 11.2 6.4 19.2-17.6-11.2-16 11.2 6.4-19.2z" fill="#D8201C" p-id="1801"></path></svg>